# xmcd CD database file
#
# Track frame offsets:
#	150
#	26035
#	51102
#	83547
#	109792
#	141422
#	168572
#	198762
#	226460
#
# Disc length: 3456 seconds
#
# Revision: 0
# Processed by: cddbd v1.5.1PL0 Copyright (c) Steve Scherf et al.
# Submitted via: CDex 1.51
#
DISCID=720d7e09
DTITLE=Riley Lee  - Fountain of Light
DYEAR=1900
DGENRE=New Age
TTITLE0=Rainbow Vibration
TTITLE1=Scattering Sunbeams
TTITLE2=Shimmering Snowscape
TTITLE3=Firefly Fantasy
TTITLE4=Moon Dance over the Bay
TTITLE5=Fountain of Light
TTITLE6=Moon-washed Winter's Night
TTITLE7=Temple Bell - Frost Sparkles
TTITLE8=Warm Star Nights
EXTD=
EXTT0=
EXTT1=
EXTT2=
EXTT3=
EXTT4=
EXTT5=
EXTT6=
EXTT7=
EXTT8=
PLAYORDER=
